Coordinates
version=1
nRows=15
nColumns=34
inDegrees=no

Units are S.I. units (second, meters, Newtons, ...)
If the header above contains a line with 'inDegrees', this indicates whether rotational values are in degrees (yes) or radians (no).

endheader
time	pelvis_tilt	pelvis_list	pelvis_rotation	pelvis_tx	pelvis_ty	pelvis_tz	hip_flexion_r	hip_adduction_r	hip_rotation_r	knee_angle_r	ankle_angle_r	subtalar_angle_r	mtp_angle_r	hip_flexion_l	hip_adduction_l	hip_rotation_l	knee_angle_l	ankle_angle_l	subtalar_angle_l	mtp_angle_l	lumbar_extension	lumbar_bending	lumbar_rotation	arm_flex_r	arm_add_r	arm_rot_r	elbow_flex_r	pro_sup_r	arm_flex_l	arm_add_l	arm_rot_l	elbow_flex_l	pro_sup_l
0	-0.0837844	0.0141204	0.0266222	-0.130319	0.878865	-0.263229	0.551069	0.0131666	-0.0965362	0.132318	0.197696	-0.0388989	-0.00223425	-0.205819	0.0072437	-0.287253	0.208517	0.529884	0.393599	-0.0117436	-0.0397434	0.0130035	-0.123504	-0.291244	-0.136795	-0.308325	0.309325	1.64457	0.141362	-0.200854	-0.279316	0.881587	1.92305
0.01	-0.0812058	-0.00401433	0.0274824	-0.113853	0.884363	-0.261805	0.540119	0.0328917	-0.101236	0.138222	0.141526	-0.0844104	-0.00226131	-0.220672	-0.0174213	-0.289873	0.223784	0.531003	0.386267	-0.0117169	-0.036102	0.0333959	-0.125197	-0.294738	-0.140477	-0.306148	0.306958	1.64456	0.133929	-0.19689	-0.278156	0.88263	1.92192
0.02	-0.0790012	-0.0217524	0.0279919	-0.0975799	0.889168	-0.260344	0.530258	0.052113	-0.106505	0.146357	0.0915344	-0.124682	-0.00228838	-0.23121	-0.0420822	-0.289932	0.245188	0.525023	0.374232	-0.0116902	-0.0321878	0.0532917	-0.12631	-0.297265	-0.143598	-0.305173	0.305455	1.64487	0.126055	-0.192374	-0.277502	0.881886	1.92123
0.03	-0.0771774	-0.0390945	0.0281434	-0.081517	0.893353	-0.258843	0.521462	0.070852	-0.112213	0.156667	0.0477717	-0.159858	-0.00231545	-0.237375	-0.0667436	-0.287448	0.272786	0.511907	0.357525	-0.0116635	-0.028007	0.072688	-0.126834	-0.298816	-0.146156	-0.305408	0.30484	1.64548	0.117745	-0.187309	-0.277354	0.879359	1.92099
0.04	-0.075756	-0.056027	0.0279171	-0.0656868	0.896992	-0.257295	0.513669	0.0891564	-0.118008	0.168998	0.0103734	-0.190338	-0.00234252	-0.239023	-0.0913922	-0.282451	0.306699	0.491555	0.336244	-0.0116367	-0.0235731	0.0915643	-0.126746	-0.299374	-0.14815	-0.306871	0.30519	1.64639	0.109018	-0.181706	-0.277709	0.875069	1.92122
0.05	-0.0747802	-0.072504	0.0272847	-0.0501156	0.900157	-0.255696	0.506783	0.10708	-0.123322	0.183077	-0.0204629	-0.216787	-0.0023696	-0.235922	-0.115957	-0.274959	0.347043	0.463826	0.310588	-0.01161	-0.0188991	0.109861	-0.126011	-0.298922	-0.149577	-0.309577	0.306653	1.64752	0.0999036	-0.175597	-0.278548	0.86906	1.92195
0.06	-0.0743215	-0.0884338	0.026226	-0.0348331	0.902916	-0.254042	0.500678	0.124648	-0.127488	0.198496	-0.0445535	-0.240001	-0.00239668	-0.227788	-0.140272	-0.264954	0.393826	0.428625	0.280902	-0.0115833	-0.0139824	0.127465	-0.124597	-0.297458	-0.150446	-0.31351	0.30944	1.64881	0.0904503	-0.169037	-0.279827	0.861409	1.92322
0.07	-0.0744786	-0.103679	0.0247538	-0.0198693	0.905329	-0.252338	0.495214	0.141822	-0.129928	0.214717	-0.0618297	-0.260702	-0.00242375	-0.214334	-0.16406	-0.25237	0.446852	0.386059	0.247733	-0.0115565	-0.00878977	0.14421	-0.122506	-0.295002	-0.150779	-0.318576	0.313801	1.65016	0.0807207	-0.162114	-0.28146	0.852219	1.92508
0.08	-0.0753625	-0.118073	0.0229399	-0.00524924	0.90745	-0.250598	0.490234	0.158476	-0.130343	0.23109	-0.0724197	-0.279322	-0.00245083	-0.195334	-0.186945	-0.237109	0.505651	0.336618	0.211875	-0.0115298	-0.00325751	0.159893	-0.119795	-0.291609	-0.150623	-0.32456	0.319979	1.65146	0.0707936	-0.154945	-0.283321	0.841609	1.92757
0.09	-0.0770668	-0.131441	0.0209324	0.0090088	0.909321	-0.248846	0.485559	0.174391	-0.128853	0.246902	-0.0766768	-0.295846	-0.00247792	-0.170695	-0.208483	-0.219072	0.569449	0.281349	0.174395	-0.011503	0.00268959	0.174306	-0.116596	-0.287351	-0.150058	-0.331086	0.328161	1.65259	0.0607654	-0.147668	-0.285237	0.829696	1.93072
0.1	-0.0796262	-0.143629	0.0189574	0.0228955	0.910981	-0.247117	0.480969	0.189268	-0.126049	0.261449	-0.0751482	-0.309768	-0.002505	-0.140525	-0.228208	-0.198208	0.637176	0.221961	0.136601	-0.0114763	0.00909895	0.187262	-0.11311	-0.282315	-0.149198	-0.337611	0.338428	1.65347	0.0507518	-0.140432	-0.287006	0.816582	1.93451
0.11	-0.0829756	-0.154524	0.0172987	0.0364111	0.912468	-0.245452	0.476186	0.202765	-0.122921	0.27411	-0.0685078	-0.320175	-0.00253208	-0.105193	-0.245684	-0.174572	0.707525	0.160831	0.0999684	-0.0114495	0.0159416	0.198627	-0.109583	-0.276575	-0.148193	-0.343446	0.350739	1.65403	0.0408874	-0.133384	-0.288413	0.802347	1.93887
0.12	-0.086921	-0.164075	0.0162553	0.0495658	0.91382	-0.24389	0.470859	0.214567	-0.12068	0.284416	-0.0574897	-0.32595	-0.00255917	-0.0653586	-0.26056	-0.148392	0.779028	0.100877	0.0659946	-0.0114227	0.0230692	0.208335	-0.106254	-0.270185	-0.147209	-0.347823	0.36492	1.65428	0.0313207	-0.126665	-0.289247	0.78705	1.94371
0.13	-0.0911588	-0.17229	0.0160873	0.0623779	0.915077	-0.242464	0.464596	0.224429	-0.120527	0.29209	-0.0428381	-0.326029	-0.00258626	-0.0219285	-0.272601	-0.120099	0.850157	0.0452865	0.0360077	-0.0113959	0.0302161	0.216388	-0.10331	-0.26316	-0.14642	-0.34999	0.380697	1.65421	0.0222021	-0.120398	-0.289334	0.770744	1.94885
0.14	-0.0953247	-0.17922	0.0169633	0.0748719	0.916283	-0.241193	0.45702	0.232222	-0.123421	0.297062	-0.0252823	-0.319655	-0.00261334	0.0240349	-0.281694	-0.0903253	0.91944	-0.00286424	0.010953	-0.0113691	0.0370368	0.22284	-0.100838	-0.255485	-0.14599	-0.349309	0.397738	1.65388	0.0136658	-0.11468	-0.288556	0.75349	1.95413
